<svg version="1.1" xmlns="http://www.w3.org/2000/svg" xmlns:xlink="http://www.w3.org/1999/xlink" width="48" height="48"><defs><linearGradient x1="15.2069" y1="14.22989" x2="38.0964" y2="39.07341" gradientUnits="userSpaceOnUse" id="color-1"><stop offset="0.42" stop-color="#000000" stop-opacity="0.38"></stop><stop offset="1" stop-color="#000000" stop-opacity="0"></stop></linearGradient><filter id="dropshadow-base"><feColorMatrix type="matrix" values="0 0 0 0 0  0 0 0 0 0  0 0 0 0 0  0 0 0 .8 0"></feColorMatrix> <feOffset dx="0" dy="1"></feOffset> <feGaussianBlur stdDeviation="1"></feGaussianBlur> <feComposite in="SourceGraphic"></feComposite></filter><filter id="dropshadow-banner" x="-10%" y="-10%" width="120%" height="130%"><feColorMatrix type="matrix" values="0 0 0 0 0  0 0 0 0 0  0 0 0 0 0  0 0 0 .4 0"></feColorMatrix> <feOffset dx="0" dy="1"></feOffset> <feGaussianBlur stdDeviation="0.5"></feGaussianBlur> <feComposite in="SourceGraphic"></feComposite></filter></defs><g fill="none" fill-rule="nonzero" stroke="none" stroke-width="none" stroke-linecap="butt" stroke-linejoin="miter" stroke-miterlimit="10" stroke-dasharray="" stroke-dashoffset="0" font-family="none" font-weight="none" font-size="none" text-anchor="none" style="mix-blend-mode: normal"><path d="M7,43c-1.10457,0 -2,-0.89543 -2,-2v-34c0,-1.10457 0.89543,-2 2,-2h34c1.10457,0 2,0.89543 2,2v34c0,1.10457 -0.89543,2 -2,2z" id="base 1 5 1" fill="#a82d68" stroke-width="1"></path><path d="M29.3033,27.93549c0,0 0.91461,1.03656 1.72201,2.29222l0.53399,-4.83245l-4.79623,0zM21.31018,26.77265c0.2546,-0.68503 0.67891,-1.41844 1.11613,-2.07479l-1.51254,-1.51254zM22.08341,33.77011h3.63491l-3.79019,-3.79019c-0.10997,-0.10997 -0.21127,-0.22863 -0.30275,-0.35484zM32.7931,14.22989l5.3033,5.3033l-1.96868,17.81579c-0.11236,0.97213 -0.93793,1.72442 -1.93937,1.72442h-9.77011c-0.53948,0 -1.02793,-0.21832 -1.38133,-0.57172l-5.3033,-5.3033c-0.30261,-0.30261 -0.50621,-0.70427 -0.55803,-1.1527l-1.96868,-17.81579z" fill="url(#color-1)" stroke-width="1"></path><path d="M15.2069,14.22989l1.96868,17.81579c0.11236,0.97213 0.93793,1.72442 1.93937,1.72442h9.77011c1.00144,0 1.82701,-0.7523 1.93937,-1.72442l1.96868,-17.81579zM24,30.83908c-1.61695,0 -2.93103,-1.31408 -2.93103,-2.93103c0,-1.95402 2.93103,-5.27586 2.93103,-5.27586c0,0 2.93103,3.32184 2.93103,5.27586c0,1.61695 -1.31408,2.93103 -2.93103,2.93103zM30.17959,20.09196h-12.35919l-0.42988,-3.90804h13.22384z" fill="none" stroke-width="0"></path><path d="M32.7931,14.22989l-1.96868,17.81579c-0.11236,0.97213 -0.93793,1.72442 -1.93937,1.72442h-9.77011c-1.00144,0 -1.82701,-0.7523 -1.93937,-1.72442l-1.96868,-17.81579zM26.93103,27.90804c0,-1.95402 -2.93103,-5.27586 -2.93103,-5.27586c0,0 -2.93103,3.32184 -2.93103,5.27586c0,1.61695 1.31408,2.93103 2.93103,2.93103c1.61695,0 2.93103,-1.31408 2.93103,-2.93103zM30.61436,16.18391h-13.22384l0.42988,3.90804h12.35919z" fill="#ffffff" stroke-width="0"></path><path d="M2,24c0,-12.15026 9.84974,-22 22,-22c12.15026,0 22,9.84974 22,22c0,12.15026 -9.84974,22 -22,22c-12.15026,0 -22,-9.84974 -22,-22z" id="base 1 1 1" fill="none" stroke-width="1"></path><g fill="#000000" stroke-width="1" font-family="Roboto, sans-serif" font-weight="400" font-size="14" text-anchor="start"></g><path d="M13,36v-12h30v12z" id="banner 1" fill="#404041" stroke-width="1" filter="url(#dropshadow-banner)"></path><text x="28" y="33" fill="#ffffff" stroke-width="1" font-family="sans-serif" font-weight="bold" font-size="8" text-anchor="middle">DEV</text><rect x="2" y="2" width="44" height="22" fill="none" stroke-width="1"></rect><path d="M2,24v-22h44v22z" fill="none" stroke-width="1"></path><path d="M2,24v-22h44v22z" fill="none" stroke-width="1"></path><path d="M2,24v-22h44v22z" fill="none" stroke-width="1"></path><path d="M2,24v-22h44v22z" fill="none" stroke-width="1"></path></g></svg>